<?xml version="1.0" encoding="utf-8"?>
<!-- Generator: Adobe Illustrator 25.4.1, SVG Export Plug-In . SVG Version: 6.00 Build 0)  -->
<svg version="1.1" id="Camada_1" xmlns="http://www.w3.org/2000/svg" xmlns:xlink="http://www.w3.org/1999/xlink" x="0px" y="0px"
	 viewBox="0 0 385 122" style="enable-background:new 0 0 385 122;" xml:space="preserve">
<style type="text/css">
	.st0{fill-rule:evenodd;clip-rule:evenodd;}
</style>
<g>
	<path class="st0" d="M260.9,73.9c-0.3-0.2-0.4-0.4-0.6-0.6l-0.2-0.2l0-0.3c-0.3-4-0.4-8-0.4-12s0.2-8,0.4-11.9
		c0-0.3,0.1-0.5,0.5-0.8c2.4-1.7,5.4-2.6,8.5-3.2c0.1-0.7,0.3-1.2,0.4-1.6c5.7-17.3,19.6-30.9,37.1-36.2c0.6-1,2-2.3,3.3-3.4
		c2.1-1.7,3-1.6,5.6-0.8c3.3,1,6,2.8,7.1,4.6c-13,0.1-23.8,4.4-32.6,11.4l0.3,0.6l0.1,0.5l0,0c0.8,1.3,2.2,1.2,3.6,1.2h0
		c0.9,0,1.8,0,2.7,0.3l0.1-0.1c0.4-0.5,0.8-0.9,1.1-1.3c0.8-1,1.5-1.9,3-2.8c0.5-0.3,1.1-0.6,1.6-0.8c0.3-0.1,0.5-0.1,0.8-0.1
		c0.5,0,0.8,0.2,1,0.7l0.1,0.3v0v0v0v0v0l0,0.1l0,0.1c0,0.4,0.1,1.3,0.1,2.1c0.5-0.5,1.1-1,1.1-1.5c0-0.3,0-0.6,0.1-0.8l0-0.1
		c0.2-0.3,0.4-0.5,0.8-0.6l0.4-0.1c1,0.1,1.5,0.8,1.9,1.5c0.2,0.3,0.3,0.6,0.4,0.6c0.5-0.1,0.8-0.1,1.1,0c0.8,0.1,0.5,0.2,1.3-0.1
		c0.6-0.2,1.3-0.2,1.9-0.1c0.6,0.1,3.2,1.8,3.8,2.5c0.4,0.5,0.4,0.8,0.5,1.1v0c0,0,0-0.1,0.4,0c0.4,0.1,0.9,0.2,1.3,0.4
		c0.5,0.2,0.9,0.5,1.2,0.8l0,0l0,0c0.3,0.3,0.5,0.7,0.8,1.1l0,0l0.3,0.4l0,0l0.4,0.6l0,0.1l0.6,0h0l0.5,0h0.1
		c1.2,0.1,2.6,0.3,3.6,0.7c0.9,0.4,1.7,0.9,2,1.6c2.5,3.1,1,5.9-0.1,8.1c-0.3,0.7-0.6,1.2-0.7,1.5l0.3-0.2c0.4-0.2,0.7-0.4,0.7-0.5
		l0,0c0.2-0.5,0.3-0.7,0.4-0.8c0.2-0.6,0.7-0.8,1.3-0.8h0l0.7,0.1l0.6,0.3l0,0c0.6,0.4,1,1,0.8,1.7h0l0,0.2l-0.1,0.6
		c0.2-0.1,0.5-0.3,0.8-0.6l0,0c0.7-0.5,1.4-1,2.2-1.2c0.8-0.1,1.5-0.1,2.1,0.2l0,0h0l0.1,0c0.6,0.4,0.9,1,0.7,2l0.6,0.1
		c1.7,0.3,4.1,1,6.1,1.8c2,0.8,3.7,1.8,3.9,2.5c0.8,2.1,0.5,4.8-0.4,7.1c-0.8,2.1-2.2,4-3.9,4.9c0.1,2.1,0.2,9.2-0.8,10.9l-0.1,0.1
		c0,0.1-0.2,0.3-0.3,0.6l0,0.1c-0.2,0.4-0.4,0.8-0.7,1.3c-0.8,1.3-1.8,2.4-3.1,1.7c-0.8-0.5-2.7,1.3-3.4,2l0,0
		c-0.2,0.2-0.4,0.8-0.5,1.6c-0.1,1.1-0.1,2.2,0,2.7c0.2,0.6-0.3,1.3-0.9,2.2c-0.5,0.7-1,1.6-1.1,2c0,1.1-0.5,2.1-1.3,2.9l0,0.1
		c-0.8,0.8-1.8,1.5-2.9,1.9c-0.4,0.2-0.9,0.6-2.2-0.2c-0.3-0.2-0.6-0.3-0.9-0.4l0.2,0.2c0.3,0.4,0.6,0.8,0.8,1l0.2,0.3l0,0
		c0.4,0,0.7,0.1,1,0.3l0,0c0.5,0.4,0.6,0.9,0.4,1.4c-0.1,0.3-0.3,0.6-0.5,0.8c-0.6,0.7-1.6,1.6-2.1,2l-0.5,0.2l-1,0.1h0
		c-0.4,0.1-0.7,0.1-1,0.1c-0.7,0.1-0.5,0.1-0.4,0.8l0,0.2c0.2,0.2,0.2,0.6,0,0.9c-0.2,0.5-1.3,0.8-2.3,0.9l-0.3,0l0,0
		c0.4,0.3,0.6,0.5,0.6,0.5c0.4,0,0.8,0.3,0.8,0.7c0.1,0.4-0.3,1.6-0.9,2.5l0,0.1c-0.4,0.6-0.8,1.1-1.2,1.4c0.2,0.4,0.7,0.8,1.1,1.2
		c0.4,0.3,0.7,0.7,0.9,0.9l0,0v0c0.2,0.3,0.2,0.7,0,1l-0.5,0.7c-0.6,0.8-1,1.3-1.5,1.8l0,0l0.5,0.3l0.3,0.3c0.5,0.6,0.6,1.2,0.1,1.7
		c-0.1,0.2-0.4,0.6-0.7,1c-0.8,1-1.9,1.8-3.2,0.8l0,0l0,0l0,0v0c-0.2-0.2-0.4-0.4-0.6-0.7l-0.3-0.4l-0.2,0l0,0
		c-0.3,0-0.6-0.1-0.9-0.3l0,0h0h0c-0.4-0.2-1-0.9-1.3-1.3l-0.2-0.2l0-0.1c-0.2-0.4-0.4-0.9-0.5-1.4l0-0.1l-0.2,0
		c-0.5-0.1-0.8-0.4-1-0.9l0-0.1c-0.2-0.4-0.2-0.8-0.3-1.2c-0.1-0.4-0.1-0.8-0.1-1.1v0v0c0-0.4,0-0.9-0.1-1.1h0l0-0.1
		c-4-13.3-3.8-20.7-3.7-21.4l0,0v-0.1l0-0.1c0.1-1.4,0-3.8-0.3-6.2c-0.2-2.1-0.6-4.1-1-5.2l0,0l0,0c-0.3-0.8-0.5-1.4-0.6-2.1
		c-0.3-1.2-0.5-2.1-2-3.1l0,0c-2.1-1.3-6.7-2.7-6.7-5.3c0-1.2-0.9-2.7-1.7-4.2c-0.5-0.9-1-1.9-1.3-2.7c-2.2-1.3-3.8-3.6-4.7-6.1
		c-0.5-1.5-0.8-3.2-0.7-4.6c0.1-1.5,0.5-2.8,1.2-3.8c0.6-0.7,1.4-1.2,2.4-1.3c0.6,0,1-1.1,1.5-2c0.4-0.8,0.7-1.5,1.2-2
		c-0.3-0.8-0.4-1.8-0.4-2.8c0-0.3,0-0.7,0-1l0,0l0,0l0-0.4l-0.2-0.1c-0.5-0.2-1.2-0.3-1.7-0.1c-1,0.4-1.2,0.3-2,0.1v0l-0.2,0h0
		c-0.7-0.2-1.4-0.6-2.2-1.1c-0.8-0.6-1.6-1.3-2.1-1.9l-0.2-0.3c-4.4,4.1-8,9-10.9,14.4c-0.9,1.8-2.4,5.6-3.3,8.2
		c3.9-0.4,7.9-0.3,11.4-0.3c1.1,0,2.2,0,3.2,0.1v0.9v32.2v0.9c-0.8,0-1.6,0-2.4,0c-3.6-0.1-7.8-0.2-11.9-0.8c1.1,4,2.6,7.5,4.8,11.2
		c9.4,15.3,26.2,25.5,45.5,25.5c0.6,0,1.2,0,1.7,0c-1.9,2.2-4.1,4.1-6.8,4.9c-3.7,1.2-5,1.3-8-0.8c-1.6-1.2-2.9-2.5-3.8-3.9
		c-13.5-4.2-24.7-13.4-31.7-25.3c-2-3.5-4-8-4.9-12.1C266.4,76.3,263.5,75.4,260.9,73.9 M359.3,103.5c-1.9,3.8-4.4,7.4-7.4,10.5
		c-4.4,4.7-9.9,7.9-15.9,7.9l-13.7,0.1c-3.1-0.1-5.7-0.1-8.7-1.4c13.4-0.1,20-16.1,22.3-27.1c0.1-0.5,0.6-0.8,1.1-0.8l25,0
		c0.5,0,1,0.4,1,1l0,0.2c-0.2,1-0.5,2-0.9,3c5-5.4,8.9-11.9,11.3-19c-1.4,0.2-3,0.4-4.8,0.5l-1,0.1v-1.1V44.5v-1l1,0
		c1.8,0.1,3.5,0.3,5,0.6c-2.3-7.1-6.1-13.6-11-19.1c0.4,1.3,0.6,2.6,0.8,3.7l0,0.2c0,0.5-0.5,1-1,1L336,29.3c-0.4,0-0.8-0.3-0.9-0.7
		c-3.1-10.5-9.3-26.3-22.3-26.9c5.7-1.6,16.5-1.7,21.6-1.7c7.6-0.2,13.7,3,18.3,7.6c3.3,3.3,5.9,7.3,7.7,11.3
		c7.7,6.9,13.5,15.9,16.5,26.1c4.3,1.4,7,3.3,7,3.3l0.4,0.3l0,0.5c0.3,3.8,0.5,7.6,0.5,11.4s-0.2,7.6-0.5,11.4l0,0.2l-0.1,0.2
		c-0.3,0.5-1.1,2-3.5,3.3c-1,0.6-2.4,1.2-4.1,1.6C373.4,87.6,367.3,96.7,359.3,103.5 M327.2,63.1c1.2,0,2.3,0.5,3.1,1.3
		c0.8,0.8,1.3,1.9,1.3,3.1s-0.5,2.3-1.3,3.1s-1.9,1.3-3.1,1.3c-1.2,0-2.3-0.5-3.1-1.3c-0.8-0.8-1.3-1.9-1.3-3.1s0.5-2.3,1.3-3.1
		C324.9,63.6,326,63.1,327.2,63.1"/>
</g>
<g>
	<path d="M49.3,36.7C49.2,16.5,65.5,0.2,85.7,0.2c20.1,0,36.5,16.1,36.5,36.1c0.1,20.3-16.1,36.6-36.3,36.7
		C65.6,73,49.4,56.8,49.3,36.7z"/>
	<path d="M0.3,22.2c0-6.7,0-13.4,0-20.2c0-1.6,0.5-2.1,2-2c4.8,0.1,3.9-0.4,3.9,3.9c0.1,11.2-0.3,22.4,0.1,33.6
		C7.4,70,22.6,94.2,51.8,108.3c46.7,22.7,101.9-5.3,112.1-56.3c1.1-5.3,1.4-10.8,1.5-16.3c0.2-11.2,0.1-22.5,0-33.8
		c0-1.5,0.4-2.1,2-2.1c4.8,0.1,3.9-0.5,3.9,3.9c0.1,11.2,0.1,22.5,0,33.8c-0.3,39.5-28.7,74.2-67.4,82.4
		c-46,9.8-90.6-18.5-101.6-64.3c-1.5-6.3-2.2-12.7-2.1-19.2C0.3,31.8,0.3,27,0.3,22.2z"/>
	<path d="M156.4,21.1c0-6.4,0-12.8,0-19.2c0-1.4,0.4-1.8,1.8-1.8c4.1,0,4.1-0.1,4.1,4.1c0,10.7,0,21.4,0,32.1
		c0,37.2-26.1,68.6-62.6,75.5C59,119.4,18.5,91.9,10.9,51.3C10,46.3,9.6,41.1,9.5,36c-0.2-11.3,0-22.6-0.1-34c0-1.6,0.5-2,2-2
		c3.9,0,3.9,0,3.9,3.9c0,10.8,0,21.6,0,32.4c0.1,34.7,24.9,64,59.2,69.8c36.8,6.3,73-18.6,80.4-55.2c1.5-7.4,1.5-14.9,1.5-22.3
		C156.4,26.1,156.4,23.6,156.4,21.1z"/>
	<path d="M152.9,22.4c0,6.1,0.3,12.2-0.1,18.3c-1.3,20.9-10.7,37.8-27.5,50.1C85.9,119.7,29.2,97.5,20,49.6c-0.9-4.4-1.3-9-1.3-13.5
		c-0.2-11.3,0-22.6-0.1-33.9c0-1.8,0.5-2.3,2.2-2.2c4.4,0.2,3.7-0.4,3.7,3.8c0,10.8,0,21.6,0,32.4C24.6,63.4,42,87,67.7,95.1
		c35,11,72.2-11.6,78.5-47.7c0.7-3.8,1-7.7,1-11.6c0.1-11.2,0.1-22.4,0-33.6c0-1.7,0.5-2.3,2.2-2.2c4.4,0.1,3.7-0.4,3.7,3.7
		c0,6.2,0,12.4,0,18.7C153,22.4,153,22.4,152.9,22.4z"/>
	<path d="M143.8,21.6c0,5.6,0.1,11.2,0,16.8c-0.6,24.9-17.5,46.7-41.4,53.8C69.3,101.9,35,80.9,28.8,47c-0.6-3.2-0.8-6.6-0.9-9.9
		c-0.1-11.6,0-23.3-0.1-34.9c0-1.8,0.5-2.3,2.2-2.2c4.5,0.1,3.7-0.4,3.7,3.7c0,11.4-0.1,22.9,0.1,34.3c0.4,23.5,17.5,44.2,40.4,49.3
		c29.5,6.6,58.1-12.6,63.1-42.4c0.5-3.1,0.7-6.4,0.7-9.6c0.1-11,0.1-22,0-33c0-1.9,0.6-2.7,2.4-2.4c0.6,0.1,1.1,0.1,1.7,0
		c1.4-0.1,1.7,0.5,1.7,1.8C143.8,8.4,143.9,15,143.8,21.6C143.8,21.6,143.8,21.6,143.8,21.6z"/>
	<path d="M37,0.1c1.8,0,3.4-0.1,5,0.1c0.3,0,0.8,1,0.8,1.5c0.1,3.5,0,6.9,0,10.4c0,8.1,0,16.2,0,24.3c0,21.8,15.9,39.9,37.5,42.8
		c23.3,3.2,45-13.5,48.1-36.9c0.3-2.1,0.4-4.2,0.4-6.4c0-11.2,0.1-22.5,0-33.8c0-1.7,0.5-2.2,2.1-2.1c4.6,0.1,3.8-0.4,3.8,3.8
		c0,10.8,0,21.6,0,32.4c0,24.6-17.4,44.8-41.7,48.7C67,89,41.6,70.4,37.7,44.4c-0.4-2.9-0.7-5.9-0.7-8.8c-0.1-11,0-22,0-33
		C37,1.8,37,1.1,37,0.1z"/>
</g>
</svg>
