<?xml version="1.0" encoding="utf-8"?>
<!-- Generator: Adobe Illustrator 25.4.1, SVG Export Plug-In . SVG Version: 6.00 Build 0)  -->
<svg version="1.1" id="Camada_1" xmlns="http://www.w3.org/2000/svg" xmlns:xlink="http://www.w3.org/1999/xlink" x="0px" y="0px"
	 viewBox="0 0 4096 500" style="enable-background:new 0 0 4096 500;" xml:space="preserve">
<g>
	<path d="M994.2,275.6l1.7,1.7l0,0l2.7-2.7l-3.6-1.2c-92.3-31.8-162.6-49.1-264.7-49c-25.8,0-53.6,1.1-84.3,3.4l0.2,2.3v-2.4h0
		l-0.4,4.7l0,0l0.4-2.3l-0.6,2.3c105.2,27.4,214.2,46,323.3,46c8.4,0,16.8-0.1,25.2-0.3L994.2,275.6l-1.7,1.6l0,0l1.7,1.7l1.7-1.7
		L994.2,275.6l1.7-1.7l0,0l-0.7-0.7l-1,0c-8.4,0.2-16.8,0.3-25.1,0.3c-108.6,0-217.2-18.5-322.2-45.8l-0.1,0l-0.1,0l-0.4,2.3v2.4h0
		h0.1l0.1,0c30.6-2.2,58.3-3.3,83.9-3.3c101.5,0,170.9,17.1,263.1,48.8L994.2,275.6l-1.6-1.7l0,0L994.2,275.6l1.7-1.7L994.2,275.6z"
		/>
	<path d="M920.3,355.2c-85.8,19.2-153.9,28.1-213.4,28.1c-115.9,0-199.7-33.7-320-91.8l-1,2.1l0.4,2.3l0,0l0.1,0l0.1,0
		c80-24,150.4-57.4,259.7-63.4l0.5,0l0.5-0.2l-1-2.1l-1.3,2c75.7,48.3,190.8,99.6,275.2,127.7l1.5-4.5
		c-83.9-28-198.9-79.3-274.1-127.2l-1.1-0.7l-1.2,0.6l1,2.1l-0.1-2.4c-110.2,6.1-181.3,39.8-260.8,63.6l0.7,2.2l-0.4-2.3l0,0
		l-7.3,1.2l6.7,3.2C505.2,353.9,590,388,706.9,388c60,0,128.4-9,214.5-28.2L920.3,355.2z"/>
	<path d="M-7,396c3.9,0.1,7.8,0.1,11.6,0.1c154.4,0,277.2-49.2,382.3-100.4l0.4-0.2l0.3-0.3l4-4h-5.7h-0.4l-0.5,0.2l0.8,2.2
		l-0.7-2.2c-50.9,15.2-96.8,20.8-171.9,20.8c-18.4,0-38.5-0.3-60.8-1h0l-0.8,0l-0.4,0l-0.4,0.1l0.8,2.2l0-2.4l0,2.4l0.8,2.2l0,0
		l-0.7-2.2l-0.1,2.4l0.8,0h0h0c22.4,0.6,42.5,1,61,1c75.4,0,121.9-5.6,173.3-21l0.1,0l0.2-0.1l-0.8-2.2v2.4h0v-2.4l-1.7-1.7l0,0
		l1.7,1.7l-1-2.1c-104.9,51.1-226.9,100-380.2,100c-3.8,0-7.7,0-11.5-0.1l0,2.4"/>
	<path d="M-7.5,292.9l0.2,0c58.6,12.9,102.3,22.7,158.7,23h0.4l0.4-0.1l-0.8-2.2l0-2.4c-55.8-0.2-99-10-157.7-22.9l-0.2,0"/>
	<path d="M646.2,230.1l-1.3,2c75.7,48.2,190.9,99.6,275.2,127.7l0.7,0.2l0.7-0.2c84.6-20.8,137.1-30.9,192.8-39.8l9.3-1.5l-8.9-3
		c-0.2-0.1-86.5-30-119.6-42l-0.4-0.1l-0.5,0c-8.4,0.2-16.8,0.3-25.1,0.3c-108.6,0-217.2-18.5-322.2-45.8l-0.3-0.1h-0.3h0h-8.1
		l6.8,4.3L646.2,230.1v2.4h0h0L646.2,230.1l-0.6,2.3c105.2,27.4,214.2,46,323.4,46c8.4,0,16.8-0.1,25.2-0.3l-0.1-2.3l-0.8,2.2
		c33.2,12.1,119.4,42,119.7,42.1l0.8-2.2l-0.4-2.3c-55.7,8.9-108.5,19.1-193.2,39.9l0.6,2.3l0.7-2.2
		c-83.9-28-198.9-79.3-274.1-127.2L646.2,230.1v2.4V230.1z"/>
	<path d="M1113,319.9c58.2,19.8,117.3,37.5,178.6,45.4l0.3-2.3l-0.6-2.3c-57.8,15.8-118.4,24-179,24c-64.9,0-129.8-9.5-190.8-29.5
		l-0.7,2.2l0.6,2.3c84.6-20.8,137.1-30.9,192.8-39.8l-0.7-4.6c-55.7,8.9-108.5,19.1-193.2,39.9l-8,2l7.8,2.6
		c61.5,20.1,126.8,29.7,192.2,29.7c60.9,0,122-8.3,180.2-24.2l11.3-3.1l-11.6-1.5c-60.7-7.9-119.6-25.4-177.6-45.2L1113,319.9z"/>
	<path d="M1292.4,365.2c61-16.3,109.6-39.5,159.2-65.2l0.1-0.1l0.6,0.1l0.2,0h0.2v-4.7h0l-0.5,4.7c41.7,8.2,85.8,20.5,131,31.4
		l0.6-2.3l-0.8-2.2c-72,26.1-140.2,39.1-210.8,39.1c-26.2,0-52.8-1.8-80-5.3l-0.6,4.7c27.4,3.6,54.2,5.4,80.6,5.4
		c71.3,0,140-13.1,212.4-39.4l7.4-2.7l-7.6-1.8c-45-10.8-89.3-23.1-131.2-31.4l-0.4,2.3v2.4h0v-4.7h0v2.4l0.4-2.3l-1.3-0.2l-0.8-0.1
		l-1.5,0.8c-49.6,25.7-97.7,48.7-158.3,64.9L1292.4,365.2z"/>
	<path d="M1451.3,297.5l-1.3-2l0,0L1451.3,297.5l-1.1-2.1l-0.8,0.4l0,0c-49.6,25.7-97.7,48.7-158.3,64.9l0.6,2.3l0.3-2.3
		c-60.7-7.9-119.5-25.4-177.5-45.2l-0.8,2.2l0.3,2.3l0.1,0l-0.3-2.3l0.2,2.3l0.1,0l0.1,0l0.1,0l0.2-0.1l-0.5-2.3l0.2,2.3l0.1,0
		l0.1,0l0.1,0h0l0.1,0l-0.3-2.3l0.2,2.3l0.1,0l0.1,0l0.1,0l0.1,0h0l0.1,0l0.2,0l0.1,0l0.1,0l0.1,0l0.1,0l0.2,0l0.1,0l-0.3-2.3
		l0.3,2.3c84.5-11.2,168.6-24.4,253.4-24.4c27,0,54.2,1.3,81.4,4.5l0.4,0l0.4-0.1L1451.3,297.5l-1.3-2L1451.3,297.5l-0.6-2.3l0,0
		L1451.3,297.5l0.2-2.3c-27.4-3.2-54.7-4.5-81.9-4.5c-85.3,0-169.6,13.3-254,24.4l0,0l-0.1,0l-0.1,0l-0.1,0l-0.1,0l-0.1,0l-0.2,0h0
		l-0.1,0h0l-0.1,0l-0.1,0h0l-0.1,0l0,0l-0.1,0l0.3,2.3l-0.2-2.3l-0.1,0l-0.1,0l-0.1,0h0l-0.1,0l-0.2,0.1l0.5,2.3l-0.2-2.3l-0.1,0
		l-0.1,0l-0.1,0l-10.5,1.2l10,3.4c58.1,19.8,117.3,37.4,178.4,45.4l0.5,0.1l0.4-0.1c61-16.3,109.6-39.5,159.2-65.2l0,0l0.8-0.4
		l0.1-0.1l0.2-0.1l11.3-7.5l-13.2,3.3L1451.3,297.5z"/>
	<path d="M-6.3,263.4c51.3-14.7,98.4-22.8,147.8-22.8c37.7,0,76.8,4.8,120,15.1l0.8,0.2l1.6-0.7l0,0l0,0
		c72-31.9,145-49.8,220.7-49.8c52.2,0,105.6,8.5,160.8,26.8l0.7-2.2l-0.8,2.2l0.2,0.1l2.1-4.2l-0.2-0.1l-2.5,4l0.2,0.1l1.2-2
		l0.8-2.2l-0.2-0.1l-0.1,0l0,0c-55.6-18.4-109.6-27-162.2-27c-76.4,0-150.1,18-222.6,50.2l1,2.1l-0.9-2.2l-0.9,0.4l0.9,2.2l0.5-2.3
		c-43.5-10.4-83-15.3-121.1-15.3c-49.9,0-97.5,8.3-149.1,23l0.7,2.3h2.3"/>
	<path d="M-7,126.7l0.5,2.3c66.8-13.5,134-20.5,200.6-20.5c156.4,0,310.1,38.6,450.7,123.4l2.4-4c-141.4-85.3-296-124.1-453.1-124.1
		c-67,0-134.4,7.1-201.5,20.6"/>
	<path d="M262.9,255.6l0.9-0.4l0,0c72-31.9,145-49.8,220.7-49.8c52.2,0,105.7,8.5,160.9,26.8l0.7-2.2l-1-2.1l0,0l1,2.1l-0.1-2.4
		c-110.2,6.1-181.3,39.8-260.8,63.6l0,0l-0.2,0l0.8,2.2l-0.7-2.2c-50.9,15.2-96.8,20.8-171.9,20.8c-18.4,0-38.5-0.3-60.8-1h0l-0.9,0
		l-0.1,2.4l1.3,2l0.8-0.5l0,0C189.8,291.9,226.2,271.9,262.9,255.6l-1.9-4.3c-36.9,16.4-73.6,36.5-110.1,59.8l0,0l-0.8,0.5l-6.3,4.1
		l8.3,0.3h0c22.4,0.6,42.5,1,61,1c75.4,0,121.9-5.6,173.3-21l0,0l0.2-0.1l-0.8-2.2l0.7,2.3c80-24,150.4-57.4,259.7-63.4l0.5,0
		l0.5-0.2l5.1-2.6l-5.4-1.8c-55.7-18.5-109.7-27.1-162.4-27.1c-76.4,0-150.1,18-222.6,50.2l0,0l-0.9,0.4L262.9,255.6z"/>
	<path d="M1451.5,297.4l1.1,2.1C1575,236.1,1705,157.6,2049.2,129l-0.2-2.3l-0.6-2.3c-114.6,30-209.5,90.1-307.8,132.1l0.9,2.2
		l-0.9-2.2c-44.5,18.3-91.3,34-140.6,41.9c-21.3,3.4-42.1,5-62.9,5c-27.9,0-55.6-2.9-83.9-8l0,0l-1.4-0.2l-0.4,2.3l1.1,2.1l0.2-0.1
		L1451.5,297.4l1.1,2.1L1451.5,297.4l-1.1-2.1l-0.2,0.1l-6.2,3.3l8.3,1.3l0.4-2.3l-0.4,2.3c28.6,5.2,56.6,8.1,84.8,8.1
		c21,0,42.1-1.6,63.6-5c49.9-8,96.9-23.8,141.7-42.2l0,0l0,0c98.8-42.3,193.4-102.2,307.2-131.9l-0.8-4.6
		c-344.7,28.5-476.1,107.6-598.4,171l0,0l0,0L1451.5,297.4z"/>
	<polyline points="-6.2,288.4 -6.4,288.4 -6.9,290.6 -4.6,290.6 	"/>
	<path d="M-7.3,293L-7.3,293L-7.3,293c58.8,12.9,102.3,22.8,158.7,23l0.7,0l1.4-0.9l0,0c36.3-23.1,72.7-43.1,109.4-59.4l0.2-0.1
		l0.2-0.1l4.5-3l-5.2-1.2c-43.5-10.4-83-15.3-121.1-15.3c-49.9,0-97.5,8.3-149.1,23l1.3,4.5c51.3-14.7,98.4-22.8,147.8-22.8
		c37.7,0,76.8,4.8,120,15.1l0.5-2.3l-1.3-2l0,0l1.3,2l-1-2.1c-36.9,16.4-73.6,36.5-110.1,59.8l0,0l-0.8,0.5l1.3,2l0-2.4
		c-55.9-0.2-98.9-9.9-157.7-22.9"/>
	<path d="M994.2,273.3L994.2,273.3h-10l9,4.5l0.1,0c33.2,12.1,119.3,42,119.7,42.1l0.5,0.2l0.6-0.1l-0.3-2.3l0.2,2.3l0.1,0l0.1,0
		l0.1,0l0.2-0.1l-0.5-2.3l0.2,2.3l0.1,0l0.1,0l0.1,0h0l0.1,0l-0.3-2.3l0.2,2.3l0.1,0l0.1,0l0.1,0l0.1,0h0l0.1,0l0.2,0l0.1,0l0.1,0
		l0.1,0l0.1,0l0.2,0l0.1,0l-0.3-2.3l0.3,2.3c84.5-11.2,168.6-24.4,253.4-24.4c27,0,54.2,1.3,81.4,4.5l0.4,0l0.4-0.1l0.3-0.1l0.4-0.2
		l-1.1-2.1l1.1,2.1c56.5-29.3,114.7-61.8,194.8-91.1l0.1,0l0.1-0.1l7.2-3.6l-8-0.8c-31.8-3.3-61.4-4.8-90.1-4.8
		c-27.8,0-54.8,1.4-82.1,3.8c-150.6,13.2-285,56.8-480.6,70.4l0.3,4.7c196.2-13.7,330.8-57.4,480.7-70.4c27.2-2.4,54.1-3.8,81.7-3.8
		c28.5,0,57.9,1.4,89.6,4.8l0.2-2.3l-1.1-2.1l0,0l1.1,2.1l-0.8-2.2c-80.5,29.4-138.9,62.1-195.3,91.3l0,0l-0.2,0.1l1.1,2.1l-0.6-2.3
		l0,0l0.6,2.3l0.3-2.3c-27.4-3.2-54.7-4.5-81.9-4.5c-85.3,0-169.6,13.3-254,24.4l0,0l-0.1,0l-0.1,0l-0.1,0l-0.1,0l-0.1,0l-0.2,0h0
		l-0.1,0l0,0l-0.1,0l-0.1,0h0l-0.1,0l0,0l-0.1,0l0.3,2.3l-0.2-2.3l-0.1,0l-0.1,0l-0.1,0h0l-0.1,0l-0.2,0.1l0.5,2.3l-0.2-2.3l-0.1,0
		l-0.1,0l-0.1,0l0.3,2.3l0.8-2.2c-0.2-0.1-86.4-30-119.5-42l-0.8,2.2l1-2.1l0,0l-1,2.1v2.4h0L994.2,273.3L994.2,273.3z"/>
	<path d="M3048.1,275.6l1.1,2.1l0,0l5-2.5l-5.3-1.8c-92.4-31.8-162.6-49.1-264.7-49c-25.8,0-53.6,1.1-84.3,3.4l0.2,2.3v-2.4h0
		l-0.4,4.7l0,0l0.4-2.3l-0.6,2.3c105.2,27.4,214.2,46,323.3,46c8.4,0,16.8-0.1,25.2-0.3L3048.1,275.6l-1.7,1.7l0,0l1.2,1.2l1.5-0.8
		L3048.1,275.6l1.7-1.7l0,0l-0.7-0.7l-1,0c-8.4,0.2-16.8,0.3-25.1,0.3c-108.6,0-217.2-18.5-322.1-45.8l-0.1,0l-0.1,0l-0.4,2.3v2.4h0
		h0.1l0.1,0c30.6-2.2,58.3-3.3,83.9-3.3c101.5,0,170.9,17.1,263.1,48.8L3048.1,275.6l-1-2.1l0,0L3048.1,275.6l1.7-1.7L3048.1,275.6z
		"/>
	<path d="M2974.3,355.2c-85.8,19.2-153.9,28.1-213.4,28.1c-115.9,0-199.7-33.7-320-91.8l-1,2.1l0.4,2.3l0,0l0.1,0l0.1,0
		c80-24,150.4-57.4,259.7-63.4l0.5,0l0.4-0.2l-1.1-2.1l-1.3,2c75.7,48.3,190.9,99.6,275.2,127.7l1.5-4.5
		c-83.9-28-198.9-79.3-274.1-127.2l-1.1-0.7l-1.2,0.6l1.1,2.1l-0.1-2.4c-110.2,6.1-181.3,39.8-260.8,63.6l0.7,2.2l-0.4-2.3l0,0
		l-7.3,1.2l6.7,3.2c120.3,58.2,205.1,92.3,322,92.3c60,0,128.4-9,214.5-28.2L2974.3,355.2z"/>
	<path d="M2439.8,293.6l-0.8-2.2l-0.1,0l0.8,2.2l-0.7-2.2c-50.9,15.2-96.8,20.8-171.9,20.8c-18.4,0-38.5-0.3-60.8-1l0,0l-0.8,0
		l-0.4,0l-0.4,0.1l0.8,2.2l0-2.4c-55.2-0.2-98.1-9.8-155.9-22.5l-0.5,2.3h2.4v-0.5v-1.9l-60.3-13.4l-0.6,0.2
		c-62.8,22-119.7,50.7-184.1,67.5l-6.4,1.7l6,2.8c73.5,33.9,170.4,44.6,240.9,48.5l0.1-2.4h-2.3v0.1v2.3l2.3,0h0.4l1.2,0l0.3,0
		l0.1-2.4l-0.1,2.3l0.1,0l2.5,0.1v-2.5h-2.3l0,2.4c3.2,0,6.4,0.1,9.6,0.1c154.4,0,277.2-49.1,382.3-100.4l0.4-0.2l0.3-0.3l7.7-7.7
		l-10.2,3.8L2439.8,293.6l-1.7-1.7l0,0L2439.8,293.6l-1-2.1c-104.9,51.1-226.9,99.9-380.2,99.9c-3.2,0-6.3,0-9.5-0.1l-2.4,0v2.4h2.3
		l0.1-2.4l-0.1,0h0h0l-0.4,0l-1.2,0h-0.3l0,2.4h2.4v-0.1v-2.2l-2.2-0.1c-70.2-3.9-166.7-14.6-239.2-48l-1,2.1l0.6,2.3
		c65-16.9,122-45.8,184.4-67.6l-0.8-2.2l-0.5,2.3l57.8,12.8l0.5-2.3h-2.3v0.5v1.9l1.8,0.4c57.7,12.7,101.1,22.3,156.9,22.6l0.4,0
		l0.4-0.1l-0.8-2.2l-0.1,2.4l0.8,0h0h0c22.4,0.6,42.5,1,61,1c75.3,0,121.9-5.6,173.3-21l0.1,0l0.2-0.1L2439.8,293.6l-1.7-1.7
		L2439.8,293.6z"/>
	<path d="M2700.1,230.1l-1.3,2c75.7,48.2,190.9,99.6,275.2,127.7l0.6,0.2l0.7-0.2c84.6-20.8,137.1-30.9,192.8-39.8l9-1.4l-8.6-3.1
		c-0.3-0.1-86.5-30-119.6-42l-0.4-0.1l-0.4,0c-8.4,0.2-16.8,0.3-25.1,0.3c-108.6,0-217.2-18.5-322.1-45.8l-0.3-0.1h-0.3h-8.1
		l6.8,4.3L2700.1,230.1v2.4h0L2700.1,230.1l-0.6,2.3c105.2,27.4,214.2,46,323.3,46c8.4,0,16.8-0.1,25.2-0.3l-0.1-2.3l-0.8,2.2
		c33.2,12.1,119.5,42,119.6,42l0.8-2.2l-0.4-2.3c-55.7,8.9-108.5,19.1-193.1,39.9l0.6,2.3l0.7-2.2c-83.9-28-198.9-79.3-274.1-127.2
		L2700.1,230.1v2.4V230.1z"/>
	<path d="M4100.6,393.7h2.4l0.1-2.3c-70.4-3.8-168.1-14.4-241.1-48.2l-2,4.3c74.2,34.2,172.2,44.8,242.9,48.6l2.5,0.1"/>
	<path d="M4045,275.4l-0.6,0.2c-62.8,22-119.7,50.7-184,67.4l1.2,4.5c65-16.9,122-45.8,184.4-67.6l-0.8-2.2l-0.5,2.3"/>
	<path d="M3167,319.9c58.2,19.8,117.3,37.5,178.6,45.4l0.3-2.3l-0.6-2.3c-57.8,15.8-118.5,24-179,24c-65,0-129.8-9.5-190.8-29.5
		l-0.7,2.2l0.6,2.3c84.6-20.8,137.1-30.9,192.8-39.8l-0.7-4.6c-55.7,8.9-108.5,19.1-193.1,39.9l-8,2l7.8,2.6
		c61.5,20.1,126.8,29.7,192.2,29.7c60.9,0,122-8.3,180.2-24.2l11.3-3.1l-11.6-1.5c-60.7-7.9-119.6-25.4-177.6-45.2L3167,319.9z"/>
	<path d="M3346.3,365.2c61-16.3,109.6-39.5,159.2-65.2l0.1-0.1l0.6,0.1l0.4-2.3v-2.4h0l-0.5,4.7c41.7,8.2,85.9,20.5,131,31.4
		l0.6-2.3l-0.8-2.2c-72,26.1-140.1,39.1-210.8,39.1c-26.2,0-52.8-1.8-80-5.3l-0.6,4.7c27.4,3.6,54.2,5.4,80.6,5.4
		c71.3,0,140-13.1,212.4-39.4l7.4-2.7l-7.6-1.8c-45-10.8-89.3-23.1-131.2-31.4l-0.4,2.3v2.4h0l0.4-4.7l-1.3-0.2l-0.8-0.1l-1.5,0.8
		c-49.6,25.7-97.7,48.7-158.3,64.9L3346.3,365.2z"/>
	<path d="M3505.3,297.5l-1.3-2l0,0L3505.3,297.5l-1.1-2.1l-0.8,0.4l0,0c-49.6,25.7-97.7,48.7-158.3,64.9l0.6,2.3l0.3-2.3
		c-60.7-7.9-119.5-25.4-177.5-45.2l-0.8,2.2l0.2,2.3l0.1,0l0.1,0l0.1,0l0.1,0l0.1,0h0l0.1,0l0.1,0h0l-0.3-2.3l0.2,2.3l0.1,0l0.1,0
		l0.1,0l0.1,0l0.2,0l-0.5-2.3l0.2,2.3l0.1,0l0.1,0l0.2,0l0.1,0l0.1,0l0.1,0l0.1,0l0.2,0l0.1,0l-0.4-2.3l0.3,2.3
		c84.5-11.2,168.6-24.4,253.4-24.4c27,0,54.2,1.3,81.4,4.5l0.4,0l0.4-0.1L3505.3,297.5l-1.3-2L3505.3,297.5l-0.6-2.3l0,0
		L3505.3,297.5l0.2-2.3c-27.4-3.2-54.7-4.5-81.9-4.5c-85.3,0-169.6,13.3-254,24.4l0,0l-0.1,0l-0.1,0l-0.1,0l-0.1,0l-0.1,0l-0.2,0
		l-0.1,0l-0.1,0l-0.1,0l-0.2,0l0.5,2.3l-0.2-2.3l-0.1,0l-0.1,0l-0.1,0l-0.1,0l-0.1,0l-0.1,0h0l-0.1,0l-0.1,0h0l0.3,2.3l-0.2-2.3
		l-0.1,0l-0.1,0l-10.8,1.1l10.2,3.5c58.1,19.8,117.3,37.4,178.4,45.4l0.5,0.1l0.4-0.1c61-16.3,109.6-39.5,159.2-65.2l0,0l0.8-0.4
		l0.1-0.1l0.1-0.1l11.3-7.5l-13.2,3.3L3505.3,297.5z"/>
	<path d="M4044.4,275.6l0.8,2.2L4044.4,275.6c-62.8,21.9-119.6,50.7-184,67.4l0.6,2.3l-0.5-2.3c-15.4,3.6-26.9,4.7-32.8,5.2
		c-10.8,1-21.7,1.5-32.7,1.5c-96.6,0-197.7-36.5-288-54.3l-0.5,2.3l-0.2,2.3l0.1,0l0.2-2.3l-0.4,2.3c28.6,5.2,56.6,8.1,84.8,8.1
		c21,0,42.1-1.6,63.6-5c49.9-7.9,96.9-23.8,141.7-42.2h0l0,0c98.8-42.3,193.4-102.2,307.2-131.9l-0.6-2.3h-2.4h2.4l-0.6-2.3
		c-114.6,30-209.5,90.1-307.8,132.1l0.9,2.2l-0.9-2.2c-44.5,18.3-91.3,34-140.6,41.9c-21.3,3.4-42.1,5-62.9,5
		c-27.9,0-55.6-2.9-83.9-8l-0.1,0l-0.2,0l-0.6,4.6c89.8,17.7,191.1,54.4,288.9,54.4c11.1,0,22.1-0.5,33.1-1.5
		c5.9-0.5,17.7-1.7,33.4-5.3l0,0l0,0c65-16.9,122-45.8,184.4-67.6h0l0,0c20.4-7.5,40.4-12.3,57.5-16.6"/>
	<line x1="4045.7" y1="275.5" x2="4044.7" y2="280.1"/>
	<path d="M4102.4,258.9c-17.1,4.2-37.3,9.1-58,16.7l1.6,4.4c20.4-7.5,40.4-12.3,57.5-16.6l-0.6-2.3h-2.4"/>
	<path d="M2700,229.9l1.2-2c-141.4-85.3-296-124.1-453.1-124.1c-67,0-134.4,7.1-201.5,20.6l-1.9,0.4v2.5h2.3l-0.6-2.3
		c-113.7,30.1-208.1,89.8-305.8,131.6l0.9,2.2l-0.9-2.2c-44.5,18.3-91.3,34-140.6,41.9c-21.3,3.4-42.1,5-62.9,5
		c-27.9,0-55.6-2.9-83.9-8l-0.1,0l-0.2,0l-0.7,4.6c89.8,17.7,191.1,54.4,288.9,54.4c11.1,0,22.1-0.5,33.1-1.5
		c5.9-0.5,17.7-1.7,33.4-5.3l0,0l0,0c65-16.9,122-45.8,184.4-67.5l0,0l0,0c20.4-7.5,40.4-12.3,57.5-16.6l1.8-0.5v-2.4h-2.4l0.6,2.3
		c50.5-14.3,97.1-22.3,145.8-22.3c37.7,0,76.8,4.8,120,15.1l0.8,0.2l1.6-0.7l0,0l0,0c72-31.9,145-49.8,220.7-49.8
		c52.2,0,105.6,8.5,160.8,26.8L2700,229.9l-0.9,2.2l0.2,0.1l2.1-4.2l-0.2-0.1l0,0L2700,229.9l-1.2,2l0.2,0.1l1.2-2l0.9-2.2l-0.2-0.1
		l-0.1,0l-0.1,0c-55.6-18.4-109.6-27-162.2-27c-76.4,0-150.1,18-222.6,50.2l0.9,2.1l-0.9-2.2l-0.9,0.4l0.9,2.2l0.6-2.3
		c-43.5-10.4-82.9-15.3-121.1-15.3c-49.2,0-96.3,8.1-147.1,22.5l-1.7,0.5v2.3h2.4l-0.6-2.3c-17.1,4.2-37.3,9.1-58,16.7l0.8,2.2
		l-0.8-2.2c-62.8,22-119.7,50.7-184.1,67.4l0.6,2.3l-0.5-2.3c-15.4,3.6-26.9,4.7-32.8,5.2c-10.8,1-21.7,1.5-32.7,1.5
		c-96.6,0-197.7-36.5-287.9-54.3l-0.5,2.3l-0.2,2.3l0.1,0l0.2-2.3l-0.4,2.3c28.6,5.2,56.6,8.1,84.8,8.1c21,0,42.1-1.6,63.6-5
		c49.8-7.9,96.9-23.8,141.7-42.2l0,0l0,0c98.2-42,192.3-101.5,305.2-131.4l1.8-0.5v-2.4h-2.3l0.5,2.3
		c66.8-13.5,133.9-20.5,200.6-20.5c156.4,0,310.1,38.6,450.7,123.4l0,0L2700,229.9z"/>
	<path d="M2316.9,255.6l0.9-0.4l0,0c72-31.9,145-49.8,220.7-49.8c52.2,0,105.7,8.5,160.9,26.8l0.7-2.2l-1.1-2.1l0,0l1.1,2.1
		l-0.1-2.4c-110.2,6.1-181.3,39.8-260.8,63.6l-0.1,0l-0.2,0.1l0.8,2.2l-0.7-2.2c-50.9,15.2-96.8,20.8-171.9,20.8
		c-18.4,0-38.5-0.3-60.8-1h0l-0.9,0l-0.1,2.4l1.3,2l0.8-0.5l0,0C2243.8,291.9,2280.2,272,2316.9,255.6l-1.9-4.3
		c-36.9,16.4-73.6,36.5-110.1,59.8l0,0l-0.8,0.5l-6.3,4.1l8.3,0.3h0c22.4,0.6,42.5,1,61,1c75.4,0,121.9-5.6,173.3-21l0.1,0l0.2-0.1
		l-0.8-2.2l0.7,2.3c80-24,150.4-57.4,259.7-63.4l0.5,0l0.4-0.2l5.1-2.6l-5.4-1.8c-55.7-18.5-109.7-27.1-162.4-27.1
		c-76.4,0-150.1,18-222.6,50.2l0,0l-0.9,0.4L2316.9,255.6z"/>
	<path d="M3505.4,297.4l1.1,2.1c122.4-63.4,252.4-141.9,596.6-170.5l-0.2-2.3l-0.6-2.3c-114.6,30-209.5,90.1-307.9,132.1l0.9,2.2
		l-0.9-2.2c-44.5,18.3-91.3,34-140.6,41.9c-21.3,3.4-42.1,5-62.9,5c-27.9,0-55.6-2.9-83.9-8l0,0l-1.4-0.2l-0.4,2.3l1.1,2.1l0.2-0.1
		L3505.4,297.4l1.1,2.1L3505.4,297.4l-1.1-2.1l-0.2,0.1l-6.2,3.3l8.3,1.3l0.4-2.3l-0.4,2.3c28.6,5.2,56.6,8.1,84.8,8.1
		c21,0,42.1-1.6,63.6-5c49.9-8,96.9-23.8,141.7-42.2l0,0l0,0c98.8-42.3,193.4-102.2,307.2-131.9l-0.8-4.6
		c-344.7,28.5-476.2,107.6-598.4,171l0,0l0,0L3505.4,297.4z"/>
	<path d="M2047,261.2h-2.3v0.5h2.3l-0.6-2.3c-16.7,4.1-36.1,8.9-56,16.2l-7.5,2.8l63.6,14.1l0.5-2.3h-2.3v0.4v1.8l1.9,0.5l0.1,0
		l0.1,0c58.7,12.9,102.2,22.7,158.7,23l0.7,0l1.4-0.9c36.3-23.1,72.7-43.1,109.4-59.4l0.2-0.1l0.2-0.1l4.5-3l-5.2-1.2
		c-43.5-10.4-83-15.3-121.1-15.3c-49.9,0-97.5,8.3-149.1,23l-1.7,0.5v1.8L2047,261.2l0.7,2.3c51.3-14.7,98.4-22.8,147.8-22.8
		c37.7,0,76.8,4.8,120,15.1l0.6-2.3l-1.3-2l0,0l1.3,2l-0.9-2.1c-37,16.4-73.6,36.5-110.1,59.8l-0.8,0.5l1.3,2l0-2.4
		c-55.9-0.2-98.9-9.9-157.7-22.9l-0.5,2.3l0.6-2.3l-0.2,0l-0.6,2.3h2.3v-0.4v-1.9l-57.6-12.8l-0.5,2.3l0.8,2.2
		c19.7-7.2,38.8-12,55.5-16.1l1.8-0.4v-2.3H2047l0.7,2.3L2047,261.2z"/>
	<path d="M3048.2,273.3L3048.2,273.3h-10l9.1,4.5l0.1,0c33.2,12.1,119.3,42,119.7,42.1l0.5,0.2l0.6-0.1l0.1,0l0.1,0l0.1,0l0.1,0l0,0
		l0.1,0l0.1,0h0l-0.3-2.3l0.2,2.3l0.1,0l0.1,0l0.1,0l0.1,0l0.2-0.1l-0.5-2.3l0.2,2.3l0.1,0l0.1,0l0.2,0l0.1,0l0.1,0l0.1,0l0.1,0
		l0.2,0l0.1,0l-0.3-2.3l0.3,2.3c84.5-11.2,168.6-24.4,253.4-24.4c27,0,54.2,1.3,81.4,4.5l0.4,0l0.4-0.1l0.3-0.1l0.4-0.2l-1.1-2.1
		l1.1,2.1c56.5-29.3,114.7-61.8,194.8-91.1l0.1,0l0.1-0.1l7.2-3.6l-8-0.8c-31.8-3.3-61.4-4.8-90.1-4.8c-27.8,0-54.8,1.4-82.2,3.8
		c-150.5,13.2-285,56.8-480.6,70.4l0.3,4.7c196.1-13.7,330.8-57.4,480.6-70.4c27.2-2.4,54.1-3.8,81.7-3.8c28.5,0,57.9,1.4,89.6,4.8
		l0.2-2.3l-1.1-2.1l0,0l1.1,2.1l-0.8-2.2c-80.5,29.4-138.9,62.1-195.3,91.3h0l-0.2,0.1l1.1,2.1l-0.6-2.3l0,0l0.6,2.3l0.3-2.3
		c-27.4-3.2-54.7-4.5-81.9-4.5c-85.3,0-169.6,13.3-254,24.4l0,0l-0.1,0l-0.1,0l-0.1,0l-0.1,0l-0.1,0l-0.2,0l-0.1,0l-0.1,0l-0.1,0
		l-0.2,0.1l0.5,2.3l-0.2-2.3l-0.1,0l-0.1,0l-0.1,0l-0.1,0l-0.1,0l-0.1,0h0l-0.1,0l-0.1,0h0l0.3,2.3l-0.2-2.3l-0.1,0l-0.1,0l0.2,2.3
		l0.8-2.2c-0.2-0.1-86.4-30-119.5-42l-0.8,2.2l1.1-2.1l0,0l-1.1,2.1v2.4h0L3048.2,273.3L3048.2,273.3z"/>
</g>
</svg>
